<?xml version="1.0" standalone="no"?>
<!DOCTYPE svg PUBLIC "-//W3C//DTD SVG 20010904//EN"
 "http://www.w3.org/TR/2001/REC-SVG-20010904/DTD/svg10.dtd">
<svg version="1.0" xmlns="http://www.w3.org/2000/svg"
 width="859.000000pt" height="859.000000pt" viewBox="0 0 859.000000 859.000000"
 preserveAspectRatio="xMidYMid meet">
<metadata>
Created by potrace 1.11, written by Peter Selinger 2001-2013
</metadata>
<g transform="translate(0.000000,859.000000) scale(0.100000,-0.100000)"
fill="#000000" stroke="none">
<path d="M3970 8553 c-268 -25 -474 -59 -695 -114 -993 -249 -1874 -854 -2460
-1689 -301 -428 -525 -917 -650 -1420 -77 -306 -75 -278 -75 -1030 0 -753 -1
-734 75 -1040 253 -1008 882 -1904 1750 -2493 575 -390 1207 -623 1920 -709
152 -18 782 -18 930 1 711 87 1337 318 1915 706 851 571 1460 1419 1731 2408
83 306 79 243 79 1121 0 861 3 810 -67 1081 -113 442 -322 910 -576 1290 -249
374 -577 724 -942 1009 -121 95 -341 241 -490 327 -518 297 -1168 497 -1780
549 -109 9 -580 12 -665 3z m541 -133 c649 -51 1138 -179 1634 -430 403 -204
730 -444 1075 -790 297 -297 484 -538 663 -855 413 -732 600 -1583 526 -2400
-65 -713 -300 -1374 -696 -1959 -493 -728 -1218 -1291 -2022 -1570 -411 -143
-850 -230 -1218 -243 l-173 -6 0 4131 0 4132 38 0 c21 0 99 -5 173 -10z"/>
</g>
</svg>
