<?xml version="1.0" standalone="no"?>
<!DOCTYPE svg PUBLIC "-//W3C//DTD SVG 20010904//EN"
 "http://www.w3.org/TR/2001/REC-SVG-20010904/DTD/svg10.dtd">
<svg version="1.0" xmlns="http://www.w3.org/2000/svg"
 width="200.000000pt" height="200.000000pt" viewBox="0 0 200.000000 200.000000"
 preserveAspectRatio="xMidYMid meet">
<metadata>
Created by potrace 1.11, written by Peter Selinger 2001-2013
</metadata>
<g transform="translate(0.000000,200.000000) scale(0.100000,-0.100000)"
fill="#000000" stroke="none">
<path d="M310 1797 c-74 -24 -140 -118 -140 -201 0 -114 101 -216 215 -216 89
0 181 68 204 153 l14 47 86 0 86 0 19 -52 c54 -153 238 -196 351 -83 24 24 46
58 54 84 l13 45 24 -30 c71 -88 224 -290 224 -296 0 -5 -6 -8 -13 -8 -30 0
-96 -70 -112 -121 -57 -170 90 -327 262 -278 85 23 153 115 153 204 0 124
-118 229 -241 212 -29 -4 -38 -2 -31 6 10 13 -242 344 -259 340 -5 -2 -9 6 -9
17 0 35 -41 110 -77 139 -120 99 -302 43 -343 -105 l-13 -44 -88 0 c-49 0 -89
3 -90 8 -14 136 -153 222 -289 179z"/>
<path d="M1440 798 c-14 -17 -70 -89 -126 -159 l-101 -127 -12 49 c-14 55 -66
116 -116 138 -118 53 -261 -11 -294 -132 l-14 -47 -87 0 -87 0 -13 45 c-25 91
-115 155 -216 155 -94 0 -187 -86 -201 -185 -17 -126 86 -245 212 -245 89 0
181 68 204 153 l14 47 88 0 c49 0 89 -3 90 -7 10 -106 108 -193 214 -193 92 0
183 70 206 159 7 28 18 50 23 48 13 -4 17 -1 86 88 30 38 60 77 67 85 85 105
112 143 108 151 -10 15 -19 10 -45 -23z m-952 -141 c41 -27 82 -98 82 -143 0
-79 -46 -149 -116 -179 -95 -40 -212 14 -245 112 -27 83 16 183 94 223 55 28
133 22 185 -13z"/>
</g>
</svg>
